<?xml version="1.0" standalone="no"?>
<!DOCTYPE svg PUBLIC "-//W3C//DTD SVG 20010904//EN"
 "http://www.w3.org/TR/2001/REC-SVG-20010904/DTD/svg10.dtd">
<svg version="1.0" xmlns="http://www.w3.org/2000/svg"
 width="300.000000pt" height="300.000000pt" viewBox="0 0 300.000000 300.000000"
 preserveAspectRatio="xMidYMid meet">
<metadata>
Created by potrace 1.10, written by Peter Selinger 2001-2011
</metadata>
<g transform="translate(0.000000,300.000000) scale(0.100000,-0.100000)"
fill="#000000" stroke="none">
<path d="M2150 2568 c0 -21 50 -77 72 -80 19 -2 23 -10 24 -38 1 -46 -3 -52
-27 -40 -10 6 -54 10 -97 8 -72 -3 -75 -4 -51 -17 48 -24 92 -131 54 -131 -9
0 -15 9 -15 24 0 13 -6 29 -14 35 -8 6 -19 25 -26 41 -14 33 -35 41 -27 10 7
-27 -1 -25 -47 10 -21 16 -43 27 -47 24 -20 -12 -7 -52 26 -84 40 -38 43 -50
16 -50 -23 0 -71 54 -71 81 0 10 -4 19 -10 19 -5 0 -10 -11 -10 -25 0 -33 76
-118 99 -110 20 6 60 -54 68 -101 7 -44 27 -39 31 7 2 27 -3 41 -21 60 -14 13
-31 40 -40 60 -8 19 -29 51 -46 71 -41 47 -39 54 5 24 35 -24 92 -97 114 -146
l12 -25 13 32 c21 49 54 65 150 71 124 7 108 26 -18 20 l-102 -5 -22 45 -22
44 42 -8 c39 -8 83 -9 142 -4 31 3 87 -19 79 -31 -3 -5 -35 -9 -71 -9 -37 0
-63 -3 -60 -6 4 -4 37 -6 74 -5 51 1 73 6 87 20 18 19 18 20 -15 36 -19 10
-57 39 -85 65 -27 26 -65 51 -82 55 -22 4 -37 17 -47 36 -16 29 -35 39 -35 17z
m170 -150 c0 -10 -39 -1 -54 12 -4 5 -5 13 -2 19 8 12 56 -15 56 -31z"/>
<path d="M2090 2557 c0 -7 -24 -18 -57 -25 -97 -22 -194 -62 -153 -62 8 0 -18
-19 -58 -41 l-73 -41 38 -19 c46 -23 46 -23 38 0 -4 15 4 26 37 49 56 38 125
73 152 76 11 2 30 7 40 11 15 7 26 1 47 -25 28 -34 28 -34 51 -14 13 10 25 20
27 22 6 3 -71 82 -81 82 -4 0 -8 -6 -8 -13z"/>
<path d="M270 2431 c0 -5 17 -21 38 -37 131 -100 199 -190 240 -316 17 -51 32
-102 35 -113 2 -11 19 -73 36 -138 l32 -117 -30 -38 c-29 -37 -52 -112 -34
-112 5 0 22 14 38 30 35 36 53 39 31 5 -9 -14 -12 -25 -7 -25 5 0 13 5 16 10
12 20 25 9 51 -42 29 -57 71 -114 147 -195 37 -40 47 -57 42 -72 -7 -24 -2
-26 25 -9 32 20 46 -2 26 -41 -19 -35 -36 -41 -36 -11 0 11 -4 20 -10 20 -11
0 -32 -69 -24 -82 19 -31 94 24 94 68 0 13 2 24 4 24 2 0 47 -20 99 -45 135
-64 209 -78 387 -72 110 3 158 9 200 24 69 25 168 75 199 100 l25 20 -100 -5
c-181 -8 -298 36 -433 165 l-85 80 33 39 c37 44 115 204 100 204 -20 0 -60
-55 -71 -97 -10 -42 -24 -61 -35 -50 -7 8 44 169 63 195 9 13 28 28 42 33 l27
10 -25 19 c-30 23 -40 25 -40 6 0 -8 -5 -18 -11 -22 -8 -5 -9 10 -4 52 10 93
-13 130 -69 108 -26 -10 -18 -24 12 -24 l29 0 -4 -82 c-6 -117 -25 -176 -74
-231 -22 -26 -44 -47 -49 -47 -4 0 -11 12 -15 27 -7 29 18 58 42 49 18 -7 29
20 37 88 4 33 14 74 23 93 16 34 13 51 -6 39 -11 -7 -35 -70 -51 -132 -5 -23
-22 -54 -36 -69 l-26 -29 -14 25 c-18 32 -17 72 1 116 18 44 18 43 0 43 -26 0
-17 16 31 55 34 28 42 40 32 46 -21 14 -65 10 -122 -10 l-53 -18 -40 81 c-58
114 -92 157 -185 231 -89 70 -148 102 -254 135 -123 38 -294 62 -294 41z m202
-50 c127 -30 191 -55 269 -106 92 -60 165 -136 217 -229 65 -117 66 -113 -25
-177 -67 -48 -251 -145 -258 -137 -2 2 -17 57 -33 123 -81 313 -106 368 -224
487 -32 32 -51 58 -43 58 8 0 52 -9 97 -19z m689 -448 c-27 -23 -34 -37 -40
-83 -6 -51 -8 -53 -19 -32 -7 12 -14 39 -16 58 -2 20 -10 40 -17 45 -15 9 -15
9 56 27 65 16 71 13 36 -15z m-125 -49 c9 -34 -7 -61 -78 -137 -32 -34 -58
-63 -58 -64 0 -2 6 -3 13 -3 18 0 122 110 131 138 10 32 22 27 39 -15 14 -34
14 -40 0 -62 -8 -13 -10 -20 -4 -17 25 16 8 -9 -26 -39 -50 -44 -35 -56 19
-16 23 17 46 31 50 31 15 0 58 -104 48 -114 -17 -17 -11 -26 15 -26 14 0 29
-8 35 -19 8 -17 3 -23 -36 -46 -47 -27 -134 -107 -134 -122 0 -16 -61 -83 -76
-83 -15 0 -20 26 -6 32 13 5 102 128 102 140 0 7 12 22 26 33 19 15 27 33 31
68 7 58 -12 64 -26 10 -13 -46 -64 -111 -100 -125 -22 -9 -23 -12 -8 -15 10
-3 16 -11 13 -18 -12 -33 -57 -95 -69 -95 -28 0 -149 145 -193 231 -30 60 -30
69 -1 69 26 0 87 35 87 50 0 16 -17 12 -70 -15 -27 -14 -52 -25 -55 -25 -3 0
-5 18 -5 40 l0 40 95 47 c53 26 124 70 158 99 34 29 65 53 69 53 4 1 11 -11
14 -25z m264 -221 c0 -31 -17 -50 -31 -36 -10 10 -9 17 6 33 22 24 25 25 25 3z
m-632 -9 c-3 -19 -34 -41 -43 -32 -9 9 18 48 33 48 7 0 12 -7 10 -16z m580
-46 c14 -14 16 -58 2 -58 -12 0 -41 55 -33 64 9 9 18 7 31 -6z m238 -316 c65
-33 181 -62 243 -62 46 0 55 -17 14 -25 -16 -4 -40 -13 -55 -21 -14 -8 -35
-14 -45 -14 -10 0 -24 -5 -31 -12 -9 -9 -55 -12 -155 -11 -147 1 -211 11 -281
42 -22 10 -52 22 -64 26 -13 4 -44 16 -68 26 l-44 20 33 46 c56 79 100 122
156 152 l54 29 93 -83 c50 -46 118 -97 150 -113z"/>
<path d="M1002 1502 c-63 -47 -70 -71 -10 -34 37 23 97 82 82 81 -5 0 -37 -22
-72 -47z"/>
<path d="M1870 2381 c-28 -54 14 -135 110 -212 22 -18 40 -37 40 -42 0 -6 -27
-8 -67 -4 -52 4 -72 2 -84 -9 -15 -13 -21 -12 -53 7 -26 15 -36 28 -36 46 0
26 -24 52 -48 53 -7 0 -22 -16 -34 -37 l-22 -36 -15 32 c-13 28 -13 35 2 66 9
20 17 42 17 49 0 7 9 21 20 31 15 14 28 16 66 10 55 -8 52 6 -6 25 -43 14 -57
10 -110 -30 -20 -15 -22 -21 -11 -34 11 -13 10 -21 -8 -49 -26 -43 -26 -53 0
-60 17 -5 20 -11 17 -32 -5 -22 -2 -26 13 -22 25 7 24 1 -6 -35 -25 -30 -34
-82 -15 -93 6 -4 8 -15 5 -26 -4 -13 -2 -19 9 -19 20 0 20 -11 1 -56 -15 -36
-37 -40 -28 -5 3 13 -3 25 -20 36 -23 15 -24 18 -12 43 7 15 15 62 18 105 5
68 3 78 -10 73 -26 -10 -33 4 -17 35 8 17 13 33 10 36 -6 6 -149 -104 -155
-119 -4 -12 35 8 44 22 3 6 11 10 17 10 18 0 -13 -30 -52 -50 -19 -10 -61 -23
-93 -29 -61 -11 -117 -36 -117 -51 0 -13 3 -13 36 5 16 8 45 15 64 15 43 1
107 29 171 76 27 19 53 32 59 29 17 -10 -14 -40 -79 -76 -60 -34 -91 -57 -91
-70 0 -5 21 5 48 21 63 40 106 52 127 36 16 -11 16 -15 -4 -54 -20 -39 -38
-51 -54 -35 -4 3 0 17 9 31 24 36 9 38 -36 6 -22 -16 -56 -38 -75 -50 -19 -11
-32 -24 -28 -27 10 -11 139 -8 169 3 37 14 53 -3 23 -24 -15 -10 -44 -16 -81
-16 -32 0 -58 -4 -58 -10 0 -6 43 -10 109 -10 115 0 126 4 133 50 3 27 33 37
58 20 13 -9 12 -13 -9 -30 -28 -24 -6 -27 27 -4 57 39 34 -23 -34 -97 -26 -27
-44 -52 -40 -56 8 -8 116 96 116 112 0 6 14 27 30 47 l31 37 -50 -1 c-29 0
-68 9 -96 21 l-48 21 7 43 c4 23 16 72 27 109 19 65 20 67 38 49 10 -10 21
-30 25 -44 3 -14 15 -28 25 -32 10 -3 21 -15 24 -27 l6 -21 36 22 c29 17 52
21 116 21 79 0 80 0 73 23 -16 52 -24 67 -37 67 -16 0 -98 84 -117 119 -7 14
-9 37 -5 57 7 38 1 44 -15 15z"/>
<path d="M1719 2113 c-18 -47 -23 -119 -9 -128 41 -25 176 -17 257 16 28 11
34 11 52 -6 32 -28 27 -69 -11 -99 -25 -19 -29 -26 -15 -26 31 0 62 42 76 103
11 51 11 61 -3 82 -9 14 -21 25 -26 25 -14 0 -13 -7 6 -36 24 -35 8 -44 -19
-10 l-22 28 -84 -12 c-81 -11 -131 -26 -131 -40 0 -4 29 0 66 8 36 8 67 12 71
9 13 -13 -11 -27 -47 -27 -21 0 -42 -4 -45 -10 -3 -5 -22 -10 -41 -10 -37 0
-43 14 -19 46 21 28 19 54 -5 54 -15 0 -20 7 -20 24 0 36 -18 41 -31 9z m33
-83 c8 0 6 -6 -5 -17 -23 -24 -42 -4 -32 34 7 27 7 28 16 6 4 -13 14 -23 21
-23z"/>
<path d="M1995 1961 c3 -11 1 -22 -5 -26 -15 -9 -12 -25 5 -25 21 0 35 32 24
53 -13 23 -32 22 -24 -2z"/>
<path d="M1905 1948 c-23 -14 -45 -34 -45 -42 0 -3 11 -6 24 -6 14 0 28 -5 32
-11 5 -8 -6 -9 -35 -4 -24 4 -41 3 -41 -3 0 -11 47 -22 92 -22 29 0 29 1 26
47 -3 52 -17 62 -53 41z"/>
<path d="M2052 1874 l-23 -27 21 -14 c12 -9 20 -24 19 -36 -3 -37 27 -110 44
-104 27 9 2 194 -28 204 -5 1 -20 -9 -33 -23z"/>
<path d="M1710 1846 c-11 -30 -45 -50 -72 -43 -11 3 -43 -3 -70 -14 -54 -21
-68 -23 -68 -10 0 5 23 17 50 27 28 10 50 22 50 27 0 5 -8 6 -17 3 -9 -4 -44
-9 -77 -13 -42 -4 -71 -13 -93 -30 -47 -34 -41 -48 7 -18 62 39 87 28 30 -13
-65 -48 -27 -50 88 -5 62 24 101 26 48 2 -26 -12 -35 -29 -16 -29 13 0 140 78
168 103 27 25 28 37 2 37 -13 0 -24 -10 -30 -24z"/>
</g>
</svg>
