<svg xmlns="http://www.w3.org/2000/svg" width="96" height="96" viewBox="0 0 24 24" fill="#2d3748">
  <path d="M12 15.5C13.933 15.5 15.5 13.933 15.5 12C15.5 10.067 13.933 8.5 12 8.5C10.067 8.5 8.5 10.067 8.5 12C8.5 13.933 10.067 15.5 12 15.5ZM19.43 12.98C19.5 12.66 19.5 12.34 19.43 12.02L21.54 10.37C21.71 10.23 21.77 9.99 21.66 9.8L19.66 6.2C19.54 5.99 19.28 5.9 19.07 5.99L16.56 7.12C16.06 6.72 15.51 6.37 14.92 6.08L14.5 3.5C14.47 3.22 14.25 3 13.97 3H10.03C9.75 3 9.53 3.22 9.5 3.5L9.08 6.08C8.49 6.37 7.94 6.72 7.44 7.12L4.93 5.99C4.72 5.9 4.46 5.99 4.34 6.2L2.34 9.8C2.23 9.99 2.29 10.23 2.46 10.37L4.57 12.02C4.5 12.34 4.5 12.66 4.57 12.98L2.46 14.63C2.29 14.77 2.23 15.01 2.34 15.2L4.34 18.8C4.46 19.01 4.72 19.1 4.93 19.01L7.44 17.88C7.94 18.28 8.49 18.63 9.08 18.92L9.5 21.5C9.53 21.78 9.75 22 10.03 22H13.97C14.25 22 14.47 21.78 14.5 21.5L14.92 18.92C15.51 18.63 16.06 18.28 16.56 17.88L19.07 19.01C19.28 19.1 19.54 19.01 19.66 18.8L21.66 15.2C21.77 15.01 21.71 14.77 21.54 14.63L19.43 12.98Z"/>
</svg>
