 <svg  version="1.0" xmlns="http://www.w3.org/2000/svg"  width="1638.000000pt" height="1638.000000pt" viewBox="0 0 1638.000000 1638.000000"  preserveAspectRatio="xMidYMid meet">  <g transform="translate(0.000000,1638.000000) scale(0.100000,-0.100000)" fill="#02465d" stroke="none"> <path d="M880 14025 c-32 -11 -35 -16 -35 -50 0 -40 -1 -39 84 -90 19 -11 45 -30 59 -42 14 -13 30 -23 37 -23 6 0 22 -11 35 -25 13 -14 31 -25 41 -25 9 0 28 -13 42 -29 13 -16 37 -36 53 -44 16 -8 40 -25 53 -36 13 -12 29 -21 35 -21 16 0 337 -327 370 -376 15 -23 40 -53 57 -68 16 -14 29 -32 29 -39 0 -7 18 -31 41 -52 36 -36 54 -64 141 -213 15 -26 27 -57 27 -70 1 -13 12 -33 26 -46 14 -13 25 -33 25 -45 0 -11 13 -47 28 -78 28 -57 39 -84 70 -173 8 -25 19 -53 23 -62 5 -10 9 -24 9 -32 0 -8 6 -27 14 -43 31 -62 46 -105 46 -130 0 -28 13 -77 36 -131 8 -18 14 -52 14 -75 1 -23 7 -53 15 -67 8 -14 14 -38 15 -53 0 -16 5 -38 11 -49 10 -19 19 -62 35 -183 4 -22 10 -44 15 -49 5 -6 9 -26 9 -45 1 -20 7 -47 15 -61 8 -14 14 -36 15 -51 0 -14 5 -30 11 -36 6 -6 13 -39 16 -74 3 -35 11 -78 19 -96 8 -17 14 -45 14 -62 0 -17 5 -31 10 -31 6 0 10 -10 10 -22 1 -13 7 -34 15 -48 8 -14 15 -41 15 -60 0 -19 7 -46 15 -60 8 -14 14 -42 15 -62 0 -20 5 -40 10 -43 6 -3 10 -15 10 -26 0 -10 4 -27 9 -37 14 -26 41 -118 41 -140 0 -11 7 -33 15 -48 8 -16 15 -39 15 -51 0 -12 4 -24 9 -27 5 -3 12 -21 15 -41 4 -19 18 -54 31 -77 14 -24 25 -58 25 -77 0 -21 9 -44 25 -63 14 -16 25 -37 25 -46 0 -10 11 -38 25 -64 14 -26 25 -53 25 -61 0 -8 7 -20 15 -27 8 -7 15 -25 15 -39 0 -16 10 -37 23 -49 12 -11 29 -36 38 -54 51 -103 94 -184 101 -193 5 -5 18 -23 28 -40 10 -16 37 -56 59 -89 23 -32 41 -61 41 -65 0 -3 18 -26 40 -51 22 -24 40 -48 40 -52 0 -4 15 -25 34 -45 18 -21 40 -52 49 -68 18 -37 354 -368 394 -389 15 -8 46 -33 68 -55 21 -23 44 -41 51 -41 6 0 32 -18 57 -40 25 -22 47 -40 50 -40 3 0 34 -19 68 -42 34 -24 69 -47 78 -53 9 -5 32 -21 51 -35 42 -31 134 -77 172 -85 14 -4 36 -18 49 -31 12 -13 27 -24 32 -24 4 0 54 -22 109 -50 55 -27 106 -50 113 -50 8 0 62 -25 122 -55 59 -30 115 -55 123 -55 8 0 40 -9 70 -21 30 -11 64 -23 75 -26 11 -2 29 -8 40 -12 19 -8 63 -21 185 -56 30 -8 70 -20 88 -26 19 -6 57 -15 85 -20 29 -4 84 -16 122 -25 39 -9 115 -19 170 -23 55 -4 113 -13 128 -19 41 -17 580 -17 610 0 12 7 74 16 137 19 63 4 149 14 190 22 41 9 99 20 128 26 58 11 110 26 160 47 18 8 41 14 52 14 36 0 287 90 407 145 17 8 36 15 42 15 6 0 25 8 43 18 176 98 300 162 315 162 7 0 13 4 13 10 0 5 19 22 43 36 23 15 56 39 72 54 17 15 39 31 50 34 11 3 31 22 44 41 23 34 23 36 6 55 -18 20 -69 27 -79 11 -3 -4 -33 -11 -65 -15 -33 -4 -63 -11 -65 -15 -3 -4 -56 -11 -118 -15 -62 -4 -117 -11 -122 -16 -13 -13 -372 -13 -395 0 -18 9 -75 19 -241 41 -41 5 -79 14 -84 19 -6 6 -19 10 -29 10 -10 0 -33 6 -50 14 -18 7 -52 19 -77 26 -25 6 -60 18 -78 26 -18 8 -43 14 -56 14 -13 0 -46 11 -73 24 -26 13 -55 27 -63 30 -8 3 -22 10 -30 15 -8 5 -44 24 -80 42 -36 18 -77 40 -92 48 -14 9 -59 35 -99 59 -40 24 -86 54 -103 68 -17 14 -55 45 -85 69 -30 25 -59 45 -65 45 -12 0 -516 501 -516 513 0 5 -13 26 -30 47 -16 21 -30 42 -30 46 0 5 -21 32 -48 60 -26 27 -56 65 -67 84 -11 18 -33 57 -50 85 -16 28 -44 71 -61 96 -17 24 -46 71 -64 104 -18 33 -44 73 -57 88 -13 16 -23 38 -23 50 0 11 -9 30 -20 42 -11 12 -38 57 -60 101 -22 43 -53 99 -69 124 -16 25 -30 54 -30 66 -1 12 -12 38 -26 58 -14 20 -25 44 -25 52 0 8 -13 38 -30 67 -16 30 -30 61 -30 69 0 18 -47 105 -61 113 -5 4 -9 14 -9 23 0 10 -13 44 -30 77 -16 33 -30 66 -30 74 0 8 -25 63 -55 122 -30 59 -55 113 -55 120 0 19 -39 96 -56 109 -7 7 -14 21 -14 32 0 11 -18 56 -40 99 -22 44 -40 85 -40 92 0 7 -16 37 -35 67 -19 29 -42 75 -51 102 -8 26 -19 48 -23 48 -5 0 -40 65 -79 144 -40 79 -78 149 -87 156 -8 7 -15 18 -15 25 0 6 -18 31 -40 56 -22 24 -40 54 -40 66 0 13 -23 47 -55 81 -30 33 -55 62 -55 65 0 15 -80 121 -138 182 -37 39 -75 85 -85 104 -9 18 -30 38 -46 44 -15 5 -37 26 -47 45 -19 36 -90 102 -109 102 -6 0 -33 23 -60 50 -27 28 -54 50 -61 50 -6 0 -31 18 -55 40 -24 22 -50 40 -56 40 -7 0 -25 14 -40 30 -14 17 -51 42 -82 56 -31 14 -65 34 -76 44 -11 10 -51 35 -90 55 -38 20 -74 40 -79 46 -6 5 -17 9 -26 9 -9 0 -25 9 -35 20 -10 11 -25 20 -34 20 -9 0 -29 7 -45 15 -15 8 -36 15 -46 15 -9 0 -36 14 -58 30 -23 17 -52 30 -65 30 -13 0 -27 4 -32 9 -6 6 -23 12 -39 15 -16 3 -34 10 -40 16 -5 5 -19 10 -31 10 -11 0 -65 16 -120 36 -150 54 -198 68 -218 65 -10 -1 -29 5 -42 13 -13 9 -46 16 -72 16 -26 1 -59 7 -73 15 -14 8 -39 14 -55 15 -17 0 -36 5 -42 11 -6 6 -44 14 -83 17 -39 2 -73 9 -76 13 -3 5 -32 9 -65 9 -33 0 -76 7 -96 15 -19 8 -65 15 -102 15 -40 0 -75 5 -86 14 -12 8 -64 15 -135 19 -63 4 -128 8 -145 11 -16 2 -46 -2 -65 -9z"/> <path d="M9990 13393 c0 -21 7 -47 15 -57 8 -11 15 -28 15 -37 0 -10 6 -30 14 -46 20 -41 51 -123 66 -178 5 -16 22 -70 40 -119 17 -48 35 -109 40 -135 5 -25 17 -80 28 -121 11 -41 26 -100 33 -130 6 -30 18 -67 25 -82 8 -15 14 -51 14 -80 1 -29 7 -71 15 -93 8 -22 15 -54 15 -72 0 -18 6 -52 14 -75 12 -37 26 -193 30 -338 1 -25 5 -51 10 -58 5 -8 3 -39 -4 -73 -10 -45 -10 -63 -1 -72 15 -15 14 -42 -4 -57 -19 -16 -20 -79 -1 -105 10 -16 11 -45 5 -140 -17 -244 -25 -321 -37 -342 -7 -12 -12 -40 -12 -63 0 -23 -5 -51 -12 -63 -6 -12 -15 -40 -19 -62 -6 -36 -16 -69 -40 -130 -4 -11 -15 -45 -24 -75 -10 -30 -21 -63 -26 -72 -5 -10 -9 -23 -9 -29 0 -7 -11 -36 -25 -66 -14 -29 -29 -72 -34 -96 -5 -23 -12 -49 -15 -58 -12 -29 12 -31 61 -4 70 37 83 46 130 88 24 20 47 37 52 37 6 0 38 27 73 61 35 33 74 67 88 74 14 8 45 39 70 69 25 31 53 58 62 62 9 3 19 13 22 22 3 9 22 35 42 57 20 22 53 63 74 90 21 28 49 61 64 74 14 14 26 30 26 36 0 7 12 27 26 46 45 60 104 158 104 172 0 8 9 22 21 33 22 20 153 280 165 327 3 15 10 30 15 33 5 3 9 13 9 23 0 10 7 24 15 31 8 7 15 23 15 36 0 13 6 38 14 56 39 90 60 146 67 178 7 33 21 79 40 125 64 158 116 656 74 711 -8 10 -15 29 -15 41 0 12 -4 24 -9 27 -4 3 -11 25 -13 49 -3 28 -19 63 -42 98 -20 29 -36 60 -36 67 0 21 -152 165 -200 190 -25 12 -79 40 -120 62 -41 22 -85 40 -97 40 -12 0 -25 5 -28 10 -3 6 -19 10 -35 10 -16 0 -41 5 -57 11 -28 12 -62 19 -181 39 -35 5 -72 14 -82 20 -10 5 -46 10 -79 10 -33 0 -72 5 -88 12 -45 18 -129 30 -250 35 l-113 4 0 -38z"/> <path d="M12353 12728 c-6 -7 -22 -53 -37 -103 -15 -49 -33 -105 -41 -123 -8 -18 -15 -43 -15 -56 0 -13 -7 -29 -15 -36 -8 -7 -15 -24 -15 -39 0 -15 -4 -31 -8 -37 -5 -5 -24 -49 -42 -99 -18 -49 -48 -121 -65 -160 -18 -38 -38 -85 -44 -103 -5 -18 -19 -45 -31 -59 -11 -14 -20 -34 -20 -45 0 -10 -17 -45 -37 -76 -21 -31 -66 -113 -101 -182 -35 -69 -69 -132 -77 -140 -7 -8 -20 -31 -30 -50 -16 -33 -84 -139 -95 -150 -3 -3 -16 -23 -29 -45 -13 -22 -29 -44 -37 -48 -8 -4 -14 -16 -14 -25 0 -10 -18 -36 -40 -57 -22 -21 -40 -45 -40 -52 0 -7 -15 -30 -33 -50 -19 -21 -42 -53 -53 -70 -10 -18 -22 -33 -26 -33 -4 0 -15 -15 -23 -32 -15 -33 -48 -77 -129 -172 -22 -27 -44 -54 -48 -60 -4 -7 -36 -43 -72 -81 -36 -39 -66 -77 -66 -85 0 -20 -647 -667 -690 -690 -19 -10 -60 -44 -90 -74 -30 -31 -59 -56 -65 -56 -6 0 -31 -21 -55 -46 -25 -25 -61 -54 -80 -64 -19 -10 -46 -30 -59 -44 -14 -14 -30 -26 -37 -26 -7 0 -38 -25 -69 -55 -31 -30 -62 -55 -68 -55 -7 -1 -28 -14 -47 -30 -19 -17 -39 -30 -45 -30 -7 0 -22 -12 -36 -26 -13 -14 -41 -35 -61 -47 -21 -11 -38 -24 -38 -28 0 -4 -28 -21 -62 -39 -35 -17 -83 -46 -108 -65 -25 -19 -71 -48 -103 -65 -32 -17 -64 -35 -70 -41 -21 -18 -142 -95 -167 -105 -43 -18 -108 -51 -135 -69 -70 -48 -364 -195 -388 -195 -9 0 -28 -10 -44 -23 -30 -25 -94 -57 -113 -57 -7 0 -34 -11 -62 -25 -27 -14 -60 -25 -73 -25 -13 0 -26 -4 -30 -9 -15 -25 -270 -121 -321 -121 -14 0 -40 -10 -57 -22 -49 -36 -101 -56 -161 -63 -34 -5 -68 -16 -87 -31 -18 -13 -45 -24 -59 -24 -14 0 -31 -5 -38 -12 -6 -6 -30 -14 -54 -19 -24 -4 -90 -21 -148 -38 -58 -17 -118 -31 -135 -31 -16 0 -39 -7 -49 -15 -11 -8 -32 -15 -47 -15 -15 0 -31 -4 -34 -10 -3 -5 -27 -10 -53 -10 -26 0 -60 -7 -76 -15 -15 -8 -47 -15 -70 -15 -22 -1 -52 -7 -66 -15 -14 -8 -44 -14 -67 -15 -23 0 -57 -6 -75 -14 -44 -19 -163 -36 -246 -36 -37 0 -72 -4 -78 -9 -5 -5 -38 -11 -74 -13 -36 -3 -75 -10 -87 -16 -15 -8 -99 -12 -263 -13 -152 0 -250 -4 -265 -11 -17 -7 -28 -8 -37 -1 -8 6 -88 11 -192 12 -98 1 -198 6 -221 11 -24 5 -81 15 -127 21 -45 6 -112 15 -148 20 -36 5 -95 12 -132 15 -39 4 -72 12 -79 20 -6 8 -26 14 -44 14 -32 0 -90 19 -130 42 -11 7 -40 15 -65 19 -65 11 -122 26 -129 36 -3 4 -41 20 -83 34 -68 24 -79 25 -97 12 -35 -24 -25 -52 41 -116 34 -32 73 -66 87 -75 14 -10 43 -33 66 -53 58 -54 126 -107 159 -127 16 -9 48 -33 70 -53 23 -20 62 -46 89 -59 26 -13 55 -32 64 -42 9 -10 22 -18 29 -18 7 0 25 -10 41 -23 15 -13 62 -40 105 -61 42 -21 84 -46 94 -57 9 -10 26 -19 36 -19 23 0 95 -35 123 -60 11 -10 40 -25 65 -33 25 -8 84 -34 131 -56 47 -23 92 -41 100 -41 8 0 23 -7 33 -15 10 -8 23 -12 27 -9 4 2 32 -7 61 -21 75 -37 181 -75 209 -75 13 0 37 -7 53 -15 15 -8 38 -15 50 -15 12 0 27 -5 34 -12 7 -7 36 -15 64 -19 70 -10 141 -28 153 -40 5 -5 27 -9 50 -9 22 -1 51 -7 65 -15 14 -8 43 -14 65 -15 22 0 50 -6 61 -14 11 -8 55 -17 100 -19 91 -6 192 -21 215 -31 82 -36 1294 -36 1377 0 9 4 69 11 132 16 196 14 259 23 272 36 7 7 39 12 78 12 41 1 72 6 84 15 11 8 39 15 62 15 23 0 58 7 77 15 20 8 54 15 76 15 22 0 43 5 46 10 3 6 23 10 43 10 20 1 48 7 62 15 14 8 41 14 61 15 19 0 40 5 47 12 11 11 39 17 172 37 31 5 74 18 97 30 23 11 58 21 77 21 19 0 37 4 40 9 4 5 24 12 46 16 22 4 42 11 46 16 3 5 15 9 28 9 12 0 31 7 42 15 10 8 28 15 40 15 11 0 29 7 40 15 10 8 29 15 41 15 12 0 43 11 69 25 26 14 57 25 70 25 13 0 26 5 29 10 3 6 15 10 26 10 11 0 46 14 79 30 33 17 65 30 71 30 7 0 71 29 143 64 72 35 142 68 156 72 35 10 248 114 252 123 4 10 92 67 140 92 39 20 102 64 174 124 18 14 38 25 46 25 8 0 27 14 43 30 16 17 34 30 39 30 6 0 29 16 50 35 22 19 45 35 51 35 6 0 51 41 100 90 49 50 95 90 101 90 21 0 124 101 180 177 29 40 67 79 84 88 16 8 30 20 30 25 0 6 25 37 55 70 30 33 55 64 55 70 0 5 18 29 40 51 22 23 40 46 40 51 0 6 15 28 33 48 48 56 86 116 129 200 21 41 51 93 68 115 16 22 29 47 30 56 0 9 7 22 15 29 8 7 15 16 15 21 0 5 23 54 50 110 28 56 50 107 50 114 0 8 14 40 30 72 17 31 30 67 30 80 0 12 5 25 10 28 6 3 10 21 10 38 0 18 7 45 15 60 8 16 22 52 30 79 8 28 19 56 24 62 9 11 12 29 30 148 6 37 15 77 21 87 5 11 10 31 10 44 0 14 7 41 15 60 8 20 15 57 15 82 0 26 6 56 12 68 13 22 20 92 38 357 4 74 12 162 17 195 9 71 9 247 0 325 -4 30 -10 116 -12 190 -3 74 -8 142 -12 150 -3 8 -7 51 -9 95 -6 110 -13 163 -25 170 -5 4 -9 39 -9 78 -1 43 -6 82 -15 97 -8 14 -14 48 -15 76 0 27 -5 55 -10 60 -10 10 -25 90 -36 194 -3 25 -11 59 -18 75 -20 43 -36 98 -36 121 0 23 -46 154 -58 166 -5 5 -13 3 -19 -4z"/> <path d="M5980 6725 c-14 -8 -42 -14 -62 -15 -20 0 -40 -4 -43 -10 -3 -5 -27 -19 -53 -30 -26 -12 -60 -34 -77 -49 -16 -15 -47 -38 -67 -50 -21 -13 -38 -29 -38 -36 0 -7 -28 -43 -61 -79 -65 -70 -99 -123 -99 -155 0 -10 -11 -39 -25 -62 -24 -43 -25 -48 -25 -261 0 -120 4 -219 9 -222 5 -4 12 -24 16 -45 3 -22 15 -47 25 -56 10 -9 36 -51 56 -92 40 -79 106 -155 164 -188 19 -11 53 -30 74 -43 78 -47 149 -82 165 -82 9 0 30 -8 46 -17 25 -14 57 -16 204 -14 128 2 182 6 202 17 16 8 34 14 42 14 7 0 54 21 105 48 68 35 111 66 168 122 83 82 184 225 184 262 0 13 7 32 15 42 8 11 15 32 15 47 0 15 5 31 10 34 14 9 13 319 -1 364 -6 20 -17 50 -24 66 -7 17 -20 50 -30 75 -9 25 -21 52 -26 60 -5 8 -17 28 -27 44 -21 37 -158 174 -203 203 -37 24 -154 82 -209 104 -53 20 -396 24 -430 4z"/> <path d="M9540 6725 c-14 -8 -39 -14 -57 -15 -19 0 -44 -10 -61 -25 -17 -14 -38 -25 -47 -25 -48 0 -265 -183 -265 -223 0 -8 -7 -20 -15 -27 -17 -14 -75 -127 -75 -146 0 -7 -6 -28 -14 -46 -38 -91 -46 -135 -46 -248 1 -81 5 -122 15 -140 8 -14 14 -39 15 -55 0 -29 26 -91 48 -118 6 -7 13 -24 17 -39 4 -15 24 -47 44 -70 20 -24 48 -58 61 -77 39 -56 91 -100 165 -137 39 -20 81 -46 95 -59 14 -12 39 -25 55 -28 17 -3 50 -11 75 -17 25 -7 113 -12 195 -13 122 0 156 3 180 16 17 9 42 17 58 17 15 0 46 14 69 30 22 17 48 30 56 30 22 0 152 117 252 225 15 17 37 52 49 80 12 27 30 59 40 70 37 41 57 291 37 460 -9 76 -84 233 -140 295 -23 25 -57 66 -76 92 -20 27 -56 59 -85 74 -27 15 -77 45 -111 66 -39 24 -73 38 -95 38 -19 0 -43 7 -53 15 -28 21 -349 21 -386 0z"/> </g> </svg> 
